<svg xmlns="http://www.w3.org/2000/svg" width="320" height="158" viewBox="0 0 320 158">
<style>
  text { font: 12px Iosevka, ui-monospace, SFMono-Regular, Menlo, Consolas, monospace; fill: #57606a; }
  .dim { fill: #8c959f; }
  .bar { fill: #0e7490; }
  .track { fill: #eaeef2; }
  @media (prefers-color-scheme: dark) {
    text { fill: #c9d1d9; }
    .dim { fill: #6e7681; }
    .bar { fill: #5eead4; }
    .track { fill: #21262d; }
  }
</style>
<text class="dim" x="0" y="16">languages, contributed repos (last year)</text>
<text x="0" y="44">TypeScript</text><rect class="track" x="96" y="39" width="168" height="3" rx="1.5"/><rect class="bar" x="96" y="39" width="149.2" height="3" rx="1.5"/><text class="dim" x="320" y="44" text-anchor="end">88.8%</text><text x="0" y="66">Svelte</text><rect class="track" x="96" y="61" width="168" height="3" rx="1.5"/><rect class="bar" x="96" y="61" width="16.2" height="3" rx="1.5"/><text class="dim" x="320" y="66" text-anchor="end">9.6%</text><text x="0" y="88">CSS</text><rect class="track" x="96" y="83" width="168" height="3" rx="1.5"/><rect class="bar" x="96" y="83" width="3.0" height="3" rx="1.5"/><text class="dim" x="320" y="88" text-anchor="end">0.5%</text><text x="0" y="110">Go</text><rect class="track" x="96" y="105" width="168" height="3" rx="1.5"/><rect class="bar" x="96" y="105" width="3.0" height="3" rx="1.5"/><text class="dim" x="320" y="110" text-anchor="end">0.4%</text>
<text xml:space="preserve" x="71.0" y="150" text-anchor="middle">4220<tspan class="dim"> commits</tspan></text><text xml:space="preserve" x="174.4" y="150" text-anchor="middle">890<tspan class="dim"> pulls</tspan></text><text xml:space="preserve" x="263.4" y="150" text-anchor="middle">1<tspan class="dim"> issues</tspan></text>
</svg>
